<svg width="250" height="170" xmlns="http://www.w3.org/2000/svg">

 <g>
  <title>background</title>
  <rect fill="none" id="canvas_background" height="172" width="252" y="-1" x="-1"/>
 </g>
 <g>
  <title>Layer 1</title>
  <g stroke="null" id="bikex-logo">
   <path stroke="null" id="svg_1" d="m89.042703,98.211358c0,3.200421 -1.179102,5.979734 -3.368864,8.674825c-3.200421,3.874194 -7.411501,6.569285 -12.801683,8.337939c-3.958415,1.263324 -7.748387,1.852875 -11.538359,1.852875c-1.431767,0 -2.695091,-0.084222 -3.958415,-0.252665c-8.590603,-1.094881 -15.833661,-2.947756 -21.897616,-5.642847c-5.390182,3.958415 -11.201473,5.979734 -17.181207,5.979734c-7.158836,0 -11.538359,-2.021318 -13.307013,-5.895512c-0.336886,-0.926438 -0.589551,-2.021318 -0.589551,-3.284642s0.589551,-2.61087 1.852875,-3.958415c2.021318,-2.273983 4.71641,-3.284642 8.253717,-3.284642c2.358205,0 4.379523,0.336886 6.232399,0.926438c1.852875,0.673773 4.126858,1.768654 6.906171,3.200421c2.695091,1.515989 4.800631,2.61087 6.148177,3.200421c2.442426,-2.358205 4.969074,-5.642847 7.495723,-9.853927c2.61087,-4.21108 4.800631,-8.337939 6.82195,-12.380575s4.463745,-8.42216 7.411501,-13.391235c3.031978,-4.969074 6.148177,-9.180155 9.180155,-12.549019l4.71641,-5.305961c-4.379523,-0.842216 -9.011711,-1.179102 -14.317672,-1.179102c-5.137518,0 -10.948808,0.673773 -17.181207,2.10554c-8.590603,1.768654 -15.159888,5.558626 -19.707855,11.03303c-2.779313,3.284642 -4.21108,6.569285 -4.21108,9.517041c0,3.958415 2.021318,6.569285 5.895512,7.748387c1.431767,0.336886 2.61087,0.589551 3.621529,0.589551c1.094881,0 2.273983,-0.252665 3.621529,-0.589551c1.431767,-0.336886 2.695091,-1.179102 3.958415,-2.442426c1.263324,-1.263324 2.273983,-2.442426 2.779313,-3.537307c0.589551,-1.179102 0.842216,-2.021318 0.842216,-2.61087s0.252665,-0.842216 0.842216,-0.842216c0.589551,0 0.842216,0.50533 0.926438,1.179102l0,0.084222c-0.589551,3.958415 -2.695091,7.074615 -6.485063,9.180155c-2.273983,1.179102 -4.463745,1.768654 -6.737728,1.768654l-4.21108,-0.673773c-5.727069,-2.021318 -8.674825,-5.727069 -8.674825,-11.369916c0,-3.789972 1.684432,-7.495723 5.053296,-11.201473c5.390182,-5.979734 13.307013,-9.769706 23.750492,-11.285695c5.053296,-0.673773 10.359257,-1.094881 15.749439,-1.094881s11.03303,0.589551 16.675877,1.768654c1.515989,-1.263324 2.779313,-2.273983 3.958415,-2.61087c1.179102,-0.50533 1.852875,-0.673773 2.021318,-0.673773c0.252665,0 0.336886,0 0.336886,0.084222c0.336886,0 0.336886,0.252665 0.252665,0.589551c-0.252665,0.336886 -0.842216,0.842216 -1.768654,1.515989c-1.094881,0.673773 -1.684432,1.263324 -1.852875,1.768654c7.411501,1.852875 12.801683,4.71641 16.086326,8.253717c1.768654,2.021318 2.61087,3.958415 2.61087,5.979734c0,2.021318 -0.589551,4.126858 -1.768654,6.232399c-1.684432,2.695091 -4.126858,4.800631 -7.748387,6.232399c-3.537307,1.431767 -7.158836,2.273983 -10.780365,2.358205c3.537307,1.094881 6.82195,2.61087 9.769706,4.547966c4.126858,2.695091 6.31662,6.485063 6.31662,11.201473zm-57.018024,11.369916c-6.485063,-3.031978 -10.443479,-4.969074 -12.212132,-5.558626c-1.684432,-0.589551 -3.368864,-0.926438 -5.053296,-0.926438s-3.031978,0.589551 -3.958415,1.768654c-0.926438,1.179102 -1.515989,2.273983 -1.515989,3.200421c0,0.926438 0.252665,1.852875 0.673773,2.695091c1.179102,2.442426 3.789972,3.621529 7.495723,3.621529c5.305961,0.252665 10.106592,-1.347546 14.570337,-4.800631zm28.214236,5.221739c6.148177,0 11.369916,-1.768654 15.665218,-5.305961c4.71641,-3.789972 7.074615,-7.748387 7.074615,-12.127911c0,-4.463745 -2.358205,-7.832609 -7.158836,-10.190814c-1.768654,-0.842216 -3.874194,-1.684432 -6.485063,-2.442426c-2.61087,-0.842216 -4.547966,-1.431767 -6.148177,-2.021318c-1.515989,-0.589551 -2.442426,-1.094881 -2.695091,-1.515989c0,-1.094881 0.842216,-1.684432 2.358205,-1.684432c1.094881,0 2.61087,0.084222 4.800631,0.252665c2.10554,0.084222 3.958415,0.252665 5.558626,0.252665c1.515989,0 3.368864,-0.589551 5.558626,-1.684432c2.10554,-1.094881 3.958415,-2.442426 5.558626,-4.126858c2.442426,-2.695091 3.789972,-5.305961 3.789972,-7.748387c0,-5.137518 -4.800631,-8.843268 -14.486115,-11.03303c-2.947756,3.958415 -8.085274,12.464797 -15.665218,25.350702s-13.475456,21.644952 -17.602315,26.024475l-3.200421,2.947756c6.232399,2.61087 12.801683,4.21108 19.96052,4.969074c1.179102,0.084222 2.189762,0.084222 3.116199,0.084222z" fill="#010101"/>
   <path stroke="null" id="svg_2" d="m97.127977,112.192144c1.094881,0 2.10554,-0.50533 3.284642,-1.515989c2.021318,-2.021318 4.547966,-6.148177 7.748387,-12.464797c0.336886,-0.842216 0.842216,-1.094881 1.179102,-0.673773c0.084222,0.084222 0.084222,0.252665 0.084222,0.589551c0,0.336886 -0.252665,0.842216 -0.673773,1.768654c-0.50533,0.926438 -0.842216,1.852875 -1.179102,2.61087c-0.336886,0.842216 -1.094881,2.021318 -2.10554,3.789972c-1.094881,1.768654 -1.852875,3.031978 -2.695091,3.958415c-2.273983,2.61087 -4.379523,3.874194 -6.31662,3.874194c-2.021318,0 -3.368864,-0.589551 -4.379523,-1.768654c-0.842216,-1.179102 -1.263324,-2.61087 -1.263324,-3.958415c0,-1.515989 0.336886,-3.031978 1.094881,-4.800631l5.305961,-13.391235c0.084222,-0.336886 0.084222,-0.842216 0.084222,-1.263324c0,-0.589551 -0.336886,-1.263324 -0.926438,-2.10554l4.547966,-0.084222c1.263324,0 2.021318,0.252665 2.273983,0.673773s0,1.179102 -0.50533,2.273983l-6.569285,15.412553c-0.926438,2.021318 -1.431767,3.789972 -1.431767,5.137518c0,1.094881 0.757994,1.937097 2.442426,1.937097zm8.085274,-30.235555c-0.842216,0.673773 -1.684432,0.926438 -2.61087,0.926438s-1.684432,-0.336886 -2.273983,-0.926438c-0.589551,-0.673773 -0.842216,-1.431767 -0.673773,-2.358205c0.084222,-0.926438 0.589551,-1.768654 1.431767,-2.358205c0.842216,-0.673773 1.684432,-0.926438 2.61087,-0.926438s1.684432,0.336886 2.273983,0.926438c0.589551,0.673773 0.842216,1.431767 0.589551,2.358205c-0.168443,1.010659 -0.589551,1.684432 -1.347546,2.358205z" fill="#010101"/>
   <path stroke="null" id="svg_3" d="m129.469072,91.726295c0,-1.515989 -0.673773,-2.273983 -2.273983,-2.273983c-2.273983,0 -4.71641,1.263324 -7.664166,3.789972s-5.305961,5.137518 -7.158836,7.832609c-0.842216,1.684432 -1.515989,3.621529 -2.021318,5.979734c-0.50533,2.442426 -0.842216,4.126858 -0.842216,5.053296c0,0.926438 0.084222,1.515989 0.50533,1.768654l-5.137518,0c-0.842216,0 -1.094881,-0.673773 -0.589551,-2.273983c0.50533,-1.431767 0.926438,-3.031978 1.684432,-4.71641c0.673773,-1.684432 1.684432,-3.621529 2.695091,-5.895512s1.852875,-3.874194 2.358205,-5.053296c-4.463745,8.42216 -7.411501,13.391235 -8.674825,14.654559c-0.589551,0.50533 -0.842216,0.336886 -0.842216,-0.50533c0,-0.084222 0,-0.336886 0.084222,-0.589551c1.852875,-2.442426 5.727069,-9.432819 11.538359,-20.550071c5.727069,-11.201473 9.769706,-18.444531 12.127911,-21.981838c1.852875,-2.695091 3.621529,-3.958415 5.390182,-3.958415l0.084222,0l0.336886,0c0,0 0.589551,0.084222 1.431767,0.252665c0.926438,0.084222 1.515989,0.252665 2.021318,0.084222c-2.021318,1.515989 -4.800631,5.053296 -8.337939,10.611922c-3.537307,5.558626 -6.31662,10.359257 -8.42216,14.486115c-2.10554,4.126858 -3.537307,7.327279 -4.21108,9.432819c4.969074,-6.232399 9.432819,-10.022371 13.391235,-11.538359c1.852875,-0.589551 3.284642,-0.926438 4.463745,-0.926438c2.442426,0 3.621529,1.094881 3.621529,3.031978c0,0.673773 -0.084222,1.431767 -0.50533,2.273983c-0.842216,2.10554 -2.358205,3.958415 -4.71641,5.642847c-2.358205,1.684432 -5.053296,2.695091 -7.832609,2.947756c-0.673773,1.515989 -0.926438,2.947756 -0.926438,4.21108s0.084222,2.442426 0.50533,3.537307c0.673773,2.61087 1.852875,4.21108 3.621529,4.800631c0.336886,0.084222 0.842216,0.084222 1.179102,0.084222c1.515989,0 3.284642,-0.926438 5.390182,-2.947756c1.684432,-1.852875 3.874194,-5.642847 6.737728,-11.285695c0.336886,-0.673773 0.673773,-0.926438 0.926438,-0.673773s0.336886,0.50533 0.336886,0.673773s-0.50533,1.263324 -1.263324,3.200421c-0.842216,1.852875 -2.021318,3.958415 -3.368864,6.31662c-3.200421,4.71641 -6.569285,7.074615 -10.359257,7.074615c-2.358205,0 -4.126858,-0.673773 -5.390182,-2.021318c-1.768654,-1.852875 -2.695091,-4.379523 -2.695091,-7.327279c0,-1.515989 0.336886,-3.031978 1.179102,-4.71641c0.842216,-1.684432 1.768654,-2.442426 2.947756,-2.61087c0.084222,0 0.336886,0 0.50533,0c1.852875,0 3.789972,-0.673773 5.642847,-2.273983c1.684432,-1.010659 2.526648,-2.442426 2.526648,-3.621529z" fill="#010101"/>
   <path stroke="null" id="svg_4" d="m141.765426,101.243336c-0.842216,1.852875 -1.179102,3.958415 -1.179102,6.232399c0,1.515989 0.336886,2.695091 1.094881,3.621529s1.684432,1.431767 2.947756,1.431767c4.969074,0 9.517041,-4.71641 13.475456,-14.065007c0.336886,-0.842216 0.842216,-1.263324 1.431767,-1.179102c0.252665,0 0.336886,0.252665 0.336886,0.50533c0,0.252665 -0.589551,1.684432 -1.852875,4.379523c-1.179102,2.695091 -2.442426,4.800631 -3.789972,6.485063c-2.779313,3.874194 -6.232399,5.727069 -10.359257,5.727069c-2.273983,0 -4.126858,-0.673773 -5.642847,-2.10554c-1.515989,-1.431767 -2.358205,-3.368864 -2.358205,-5.895512c0,-2.442426 0.589551,-5.053296 1.768654,-7.832609c1.179102,-2.779313 2.779313,-5.305961 4.800631,-7.748387c2.021318,-2.442426 4.379523,-4.126858 7.074615,-5.137518c1.263324,-0.589551 2.442426,-0.842216 3.621529,-0.842216c1.179102,0 2.273983,0.336886 3.200421,0.926438c0.926438,0.842216 1.431767,1.684432 1.431767,2.61087c0,3.284642 -2.021318,6.485063 -5.895512,9.432819c-1.179102,0.926438 -2.947756,1.768654 -5.053296,2.442426c-2.189762,0.673773 -3.958415,1.010659 -5.053296,1.010659zm13.728121,-13.13857c0,-1.094881 -0.50533,-1.684432 -1.263324,-1.684432c-1.515989,0 -3.874194,1.852875 -7.074615,5.642847c-1.852875,2.358205 -3.537307,4.969074 -4.969074,7.748387c0.926438,0 2.273983,-0.336886 4.126858,-0.926438c1.768654,-0.673773 3.284642,-1.515989 4.71641,-2.61087c2.947756,-2.526648 4.463745,-5.221739 4.463745,-8.169495z" fill="#010101"/>
   <path stroke="null" id="svg_5" d="m242.747126,46.75196c1.263324,0 1.852875,0.336886 1.852875,1.094881c0,0.589551 -0.842216,1.684432 -2.358205,3.284642c-1.684432,1.684432 -4.379523,3.789972 -8.337939,6.569285c-3.958415,2.779313 -9.517041,6.737728 -16.591655,11.538359c-7.074615,4.969074 -12.885905,8.92749 -17.518093,12.212132c0,3.200421 -0.084222,6.148177 -0.084222,8.92749c0,9.517041 0.50533,15.833661 1.263324,19.286747c1.263324,4.547966 3.368864,6.906171 6.31662,6.906171c4.126858,0 8.337939,-3.368864 12.801683,-10.106592c1.684432,-2.442426 3.031978,-5.053296 4.21108,-8.001052c0.336886,-0.842216 0.842216,-1.179102 1.263324,-1.094881s0.50533,0.589551 0.084222,1.515989c-4.969074,10.359257 -10.359257,17.265428 -16.338991,20.550071c-2.273983,1.263324 -4.379523,1.852875 -6.232399,1.852875c-1.852875,0 -3.621529,-0.673773 -5.137518,-2.273983c-1.515989,-1.515989 -2.61087,-3.621529 -3.200421,-6.485063c-0.336886,-1.515989 -0.50533,-4.969074 -0.50533,-10.611922c0,-5.558626 0,-11.369916 0.084222,-17.433872c-21.392287,15.412553 -36.29951,29.814447 -44.805892,43.205682c-1.684432,2.779313 -3.368864,4.21108 -5.053296,4.21108c-0.842216,0 -1.179102,-0.336886 -1.179102,-0.926438c0,-0.50533 0.252665,-0.926438 0.589551,-1.684432l0.926438,-1.684432c11.201473,-15.412553 27.624685,-30.909328 49.353858,-46.406102c0,-1.431767 0,-4.463745 0,-9.011711c0,-4.547966 -0.252665,-8.843268 -0.842216,-12.549019c-0.673773,-4.379523 -3.031978,-6.485063 -7.327279,-6.485063c-5.137518,0 -10.696143,2.358205 -16.591655,6.906171c-3.031978,2.358205 -4.969074,4.463745 -5.895512,6.485063c-0.084222,0.084222 -0.50533,0.084222 -0.926438,0c-1.179102,-0.336886 -1.263324,-1.179102 -0.50533,-2.61087c0.50533,-0.842216 2.10554,-2.273983 4.800631,-4.463745c2.695091,-2.273983 6.232399,-4.547966 10.611922,-6.906171c4.379523,-2.358205 8.085274,-3.537307 11.369916,-3.537307c3.368864,0 5.727069,1.431767 7.327279,4.126858c1.515989,2.779313 2.442426,5.727069 2.61087,8.92749c0.336886,4.379523 0.589551,7.748387 0.589551,10.359257c0,2.61087 0,3.958415 0,4.547966c0,0.589551 0,1.094881 0,1.431767c3.200421,-2.273983 7.832609,-5.558626 14.065007,-9.769706c6.232399,-4.21108 11.03303,-7.495723 14.317672,-10.022371c3.284642,-2.442426 6.148177,-4.800631 8.42216,-7.158836c0.252665,-0.252665 0.50533,-0.50533 0.926438,-0.842216c0.336886,-0.336886 0.673773,-0.589551 0.842216,-0.842216c0.252665,-0.252665 0.50533,-0.50533 0.673773,-0.673773c0.336886,-0.252665 0.589551,-0.50533 0.673773,-0.673773c0.252665,-0.084222 0.50533,-0.336886 0.673773,-0.589551c0.252665,-0.252665 0.50533,-0.336886 0.589551,-0.50533c0.084222,-0.084222 0.336886,-0.252665 0.589551,-0.336886c1.094881,-0.168443 1.347546,-0.252665 1.60021,-0.252665z" fill="#010101"/>
  </g>
 </g>
</svg>