<?xml version="1.0" encoding="utf-8"?>
<!-- Generator: Adobe Illustrator 18.1.1, SVG Export Plug-In . SVG Version: 6.00 Build 0)  -->
<svg version="1.1" id="Layer_1" xmlns="http://www.w3.org/2000/svg" xmlns:xlink="http://www.w3.org/1999/xlink" x="0px" y="0px"
	 viewBox="0 0 300 300" enable-background="new 0 0 300 300" xml:space="preserve">
<g id="bikex-logo">
	<path fill="#010101" d="M107.9,160.9c0,3.8-1.4,7.1-4,10.3c-3.8,4.6-8.8,7.8-15.2,9.9c-4.7,1.5-9.2,2.2-13.7,2.2
		c-1.7,0-3.2-0.1-4.7-0.3c-10.2-1.3-18.8-3.5-26-6.7c-6.4,4.7-13.3,7.1-20.4,7.1c-8.5,0-13.7-2.4-15.8-7c-0.4-1.1-0.7-2.4-0.7-3.9
		s0.7-3.1,2.2-4.7c2.4-2.7,5.6-3.9,9.8-3.9c2.8,0,5.2,0.4,7.4,1.1c2.2,0.8,4.9,2.1,8.2,3.8c3.2,1.8,5.7,3.1,7.3,3.8
		c2.9-2.8,5.9-6.7,8.9-11.7c3.1-5,5.7-9.9,8.1-14.7s5.3-10,8.8-15.9c3.6-5.9,7.3-10.9,10.9-14.9l5.6-6.3c-5.2-1-10.7-1.4-17-1.4
		c-6.1,0-13,0.8-20.4,2.5c-10.2,2.1-18,6.6-23.4,13.1c-3.3,3.9-5,7.8-5,11.3c0,4.7,2.4,7.8,7,9.2c1.7,0.4,3.1,0.7,4.3,0.7
		c1.3,0,2.7-0.3,4.3-0.7c1.7-0.4,3.2-1.4,4.7-2.9c1.5-1.5,2.7-2.9,3.3-4.2c0.7-1.4,1-2.4,1-3.1s0.3-1,1-1c0.7,0,1,0.6,1.1,1.4v0.1
		c-0.7,4.7-3.2,8.4-7.7,10.9c-2.7,1.4-5.3,2.1-8,2.1l-5-0.8c-6.8-2.4-10.3-6.8-10.3-13.5c0-4.5,2-8.9,6-13.3
		c6.4-7.1,15.8-11.6,28.2-13.4c6-0.8,12.3-1.3,18.7-1.3s13.1,0.7,19.8,2.1c1.8-1.5,3.3-2.7,4.7-3.1c1.4-0.6,2.2-0.8,2.4-0.8
		c0.3,0,0.4,0,0.4,0.1c0.4,0,0.4,0.3,0.3,0.7c-0.3,0.4-1,1-2.1,1.8c-1.3,0.8-2,1.5-2.2,2.1c8.8,2.2,15.2,5.6,19.1,9.8
		c2.1,2.4,3.1,4.7,3.1,7.1c0,2.4-0.7,4.9-2.1,7.4c-2,3.2-4.9,5.7-9.2,7.4c-4.2,1.7-8.5,2.7-12.8,2.8c4.2,1.3,8.1,3.1,11.6,5.4
		C105.3,150.8,107.9,155.3,107.9,160.9z M40.2,174.4c-7.7-3.6-12.4-5.9-14.5-6.6c-2-0.7-4-1.1-6-1.1s-3.6,0.7-4.7,2.1
		c-1.1,1.4-1.8,2.7-1.8,3.8c0,1.1,0.3,2.2,0.8,3.2c1.4,2.9,4.5,4.3,8.9,4.3C29.2,180.4,34.9,178.5,40.2,174.4z M73.7,180.6
		c7.3,0,13.5-2.1,18.6-6.3c5.6-4.5,8.4-9.2,8.4-14.4c0-5.3-2.8-9.3-8.5-12.1c-2.1-1-4.6-2-7.7-2.9c-3.1-1-5.4-1.7-7.3-2.4
		c-1.8-0.7-2.9-1.3-3.2-1.8c0-1.3,1-2,2.8-2c1.3,0,3.1,0.1,5.7,0.3c2.5,0.1,4.7,0.3,6.6,0.3c1.8,0,4-0.7,6.6-2
		c2.5-1.3,4.7-2.9,6.6-4.9c2.9-3.2,4.5-6.3,4.5-9.2c0-6.1-5.7-10.5-17.2-13.1c-3.5,4.7-9.6,14.8-18.6,30.1S55,165.9,50.1,171.1
		l-3.8,3.5c7.4,3.1,15.2,5,23.7,5.9C71.4,180.6,72.6,180.6,73.7,180.6z"/>
	<path fill="#010101" d="M117.5,177.5c1.3,0,2.5-0.6,3.9-1.8c2.4-2.4,5.4-7.3,9.2-14.8c0.4-1,1-1.3,1.4-0.8c0.1,0.1,0.1,0.3,0.1,0.7
		c0,0.4-0.3,1-0.8,2.1c-0.6,1.1-1,2.2-1.4,3.1c-0.4,1-1.3,2.4-2.5,4.5c-1.3,2.1-2.2,3.6-3.2,4.7c-2.7,3.1-5.2,4.6-7.5,4.6
		c-2.4,0-4-0.7-5.2-2.1c-1-1.4-1.5-3.1-1.5-4.7c0-1.8,0.4-3.6,1.3-5.7l6.3-15.9c0.1-0.4,0.1-1,0.1-1.5c0-0.7-0.4-1.5-1.1-2.5
		l5.4-0.1c1.5,0,2.4,0.3,2.7,0.8s0,1.4-0.6,2.7l-7.8,18.3c-1.1,2.4-1.7,4.5-1.7,6.1C114.6,176.5,115.5,177.5,117.5,177.5z
		 M127.1,141.6c-1,0.8-2,1.1-3.1,1.1s-2-0.4-2.7-1.1c-0.7-0.8-1-1.7-0.8-2.8c0.1-1.1,0.7-2.1,1.7-2.8c1-0.8,2-1.1,3.1-1.1
		s2,0.4,2.7,1.1c0.7,0.8,1,1.7,0.7,2.8C128.5,140,128,140.8,127.1,141.6z"/>
	<path fill="#010101" d="M155.9,153.2c0-1.8-0.8-2.7-2.7-2.7c-2.7,0-5.6,1.5-9.1,4.5s-6.3,6.1-8.5,9.3c-1,2-1.8,4.3-2.4,7.1
		c-0.6,2.9-1,4.9-1,6c0,1.1,0.1,1.8,0.6,2.1h-6.1c-1,0-1.3-0.8-0.7-2.7c0.6-1.7,1.1-3.6,2-5.6c0.8-2,2-4.3,3.2-7s2.2-4.6,2.8-6
		c-5.3,10-8.8,15.9-10.3,17.4c-0.7,0.6-1,0.4-1-0.6c0-0.1,0-0.4,0.1-0.7c2.2-2.9,6.8-11.2,13.7-24.4c6.8-13.3,11.6-21.9,14.4-26.1
		c2.2-3.2,4.3-4.7,6.4-4.7h0.1h0.4c0,0,0.7,0.1,1.7,0.3c1.1,0.1,1.8,0.3,2.4,0.1c-2.4,1.8-5.7,6-9.9,12.6c-4.2,6.6-7.5,12.3-10,17.2
		c-2.5,4.9-4.2,8.7-5,11.2c5.9-7.4,11.2-11.9,15.9-13.7c2.2-0.7,3.9-1.1,5.3-1.1c2.9,0,4.3,1.3,4.3,3.6c0,0.8-0.1,1.7-0.6,2.7
		c-1,2.5-2.8,4.7-5.6,6.7c-2.8,2-6,3.2-9.3,3.5c-0.8,1.8-1.1,3.5-1.1,5s0.1,2.9,0.6,4.2c0.8,3.1,2.2,5,4.3,5.7
		c0.4,0.1,1,0.1,1.4,0.1c1.8,0,3.9-1.1,6.4-3.5c2-2.2,4.6-6.7,8-13.4c0.4-0.8,0.8-1.1,1.1-0.8s0.4,0.6,0.4,0.8s-0.6,1.5-1.5,3.8
		c-1,2.2-2.4,4.7-4,7.5c-3.8,5.6-7.8,8.4-12.3,8.4c-2.8,0-4.9-0.8-6.4-2.4c-2.1-2.2-3.2-5.2-3.2-8.7c0-1.8,0.4-3.6,1.4-5.6
		c1-2,2.1-2.9,3.5-3.1c0.1,0,0.4,0,0.6,0c2.2,0,4.5-0.8,6.7-2.7C154.9,156.3,155.9,154.6,155.9,153.2z"/>
	<path fill="#010101" d="M170.5,164.5c-1,2.2-1.4,4.7-1.4,7.4c0,1.8,0.4,3.2,1.3,4.3s2,1.7,3.5,1.7c5.9,0,11.3-5.6,16-16.7
		c0.4-1,1-1.5,1.7-1.4c0.3,0,0.4,0.3,0.4,0.6c0,0.3-0.7,2-2.2,5.2c-1.4,3.2-2.9,5.7-4.5,7.7c-3.3,4.6-7.4,6.8-12.3,6.8
		c-2.7,0-4.9-0.8-6.7-2.5c-1.8-1.7-2.8-4-2.8-7c0-2.9,0.7-6,2.1-9.3c1.4-3.3,3.3-6.3,5.7-9.2c2.4-2.9,5.2-4.9,8.4-6.1
		c1.5-0.7,2.9-1,4.3-1c1.4,0,2.7,0.4,3.8,1.1c1.1,1,1.7,2,1.7,3.1c0,3.9-2.4,7.7-7,11.2c-1.4,1.1-3.5,2.1-6,2.9
		C173.9,164.1,171.8,164.5,170.5,164.5z M186.8,148.9c0-1.3-0.6-2-1.5-2c-1.8,0-4.6,2.2-8.4,6.7c-2.2,2.8-4.2,5.9-5.9,9.2
		c1.1,0,2.7-0.4,4.9-1.1c2.1-0.8,3.9-1.8,5.6-3.1C185,155.6,186.8,152.4,186.8,148.9z"/>
	<path fill="#010101" d="M290.4,99.8c1.5,0,2.2,0.4,2.2,1.3c0,0.7-1,2-2.8,3.9c-2,2-5.2,4.5-9.9,7.8c-4.7,3.3-11.3,8-19.7,13.7
		c-8.4,5.9-15.3,10.6-20.8,14.5c0,3.8-0.1,7.3-0.1,10.6c0,11.3,0.6,18.8,1.5,22.9c1.5,5.4,4,8.2,7.5,8.2c4.9,0,9.9-4,15.2-12
		c2-2.9,3.6-6,5-9.5c0.4-1,1-1.4,1.5-1.3s0.6,0.7,0.1,1.8c-5.9,12.3-12.3,20.5-19.4,24.4c-2.7,1.5-5.2,2.2-7.4,2.2
		c-2.2,0-4.3-0.8-6.1-2.7c-1.8-1.8-3.1-4.3-3.8-7.7c-0.4-1.8-0.6-5.9-0.6-12.6c0-6.6,0-13.5,0.1-20.7
		c-25.4,18.3-43.1,35.4-53.2,51.3c-2,3.3-4,5-6,5c-1,0-1.4-0.4-1.4-1.1c0-0.6,0.3-1.1,0.7-2l1.1-2c13.3-18.3,32.8-36.7,58.6-55.1
		c0-1.7,0-5.3,0-10.7c0-5.4-0.3-10.5-1-14.9c-0.8-5.2-3.6-7.7-8.7-7.7c-6.1,0-12.7,2.8-19.7,8.2c-3.6,2.8-5.9,5.3-7,7.7
		c-0.1,0.1-0.6,0.1-1.1,0c-1.4-0.4-1.5-1.4-0.6-3.1c0.6-1,2.5-2.7,5.7-5.3c3.2-2.7,7.4-5.4,12.6-8.2c5.2-2.8,9.6-4.2,13.5-4.2
		c4,0,6.8,1.7,8.7,4.9c1.8,3.3,2.9,6.8,3.1,10.6c0.4,5.2,0.7,9.2,0.7,12.3c0,3.1,0,4.7,0,5.4c0,0.7,0,1.3,0,1.7
		c3.8-2.7,9.3-6.6,16.7-11.6c7.4-5,13.1-8.9,17-11.9c3.9-2.9,7.3-5.7,10-8.5c0.3-0.3,0.6-0.6,1.1-1c0.4-0.4,0.8-0.7,1-1
		c0.3-0.3,0.6-0.6,0.8-0.8c0.4-0.3,0.7-0.6,0.8-0.8c0.3-0.1,0.6-0.4,0.8-0.7c0.3-0.3,0.6-0.4,0.7-0.6c0.1-0.1,0.4-0.3,0.7-0.4
		C289.8,99.9,290.1,99.8,290.4,99.8z"/>
</g>
</svg>
